<?xml version="1.0" encoding="UTF-8"?>
<svg version="1.1" xmlns="http://www.w3.org/2000/svg" width="512" height="512">
<path d="M0 0 C103.95 0 207.9 0 315 0 C315 13.86 315 27.72 315 42 C211.05 42 107.1 42 0 42 C0 28.14 0 14.28 0 0 Z " fill="#FFFFFF" transform="translate(168,173)"/>
<path d="M0 0 C0.33 -1.98 0.66 -3.96 1 -6 C12.22 -6 23.44 -6 35 -6 C35 25.35 35 56.7 35 89 C23.78 89 12.56 89 1 89 C0.505 85.535 0.505 85.535 0 82 C-0.54527344 82.39832031 -1.09054687 82.79664063 -1.65234375 83.20703125 C-11.54629577 90.15816677 -21.90674887 93.03698168 -34 92 C-49.27007943 89.20474487 -59.00856982 82.76398193 -68.359375 70.4453125 C-75.89700871 59.21064892 -77.32612839 44.73056048 -75.25 31.625 C-73.19697753 21.48731661 -69.90984426 13.74784665 -63 6 C-62.47664063 5.37222656 -61.95328125 4.74445313 -61.4140625 4.09765625 C-45.57396018 -13.55826267 -18.34540948 -12.54144144 0 0 Z M-35.875 28.6875 C-39.51008778 34.35396036 -40.61765692 40.11130135 -39.375 46.75 C-37.69794026 52.66658345 -35.15277565 56.54094878 -29.9375 59.875 C-24.014456 62.88523124 -18.1002587 63.20179996 -11.734375 61.3359375 C-6.682027 59.11830384 -2.78744923 55.77327907 0 51 C2.37311322 44.65769742 2.75975695 38.26295863 0 32 C-3.31720263 27.01984277 -7.17000578 22.75999825 -13 21 C-23.1402973 19.73784135 -28.58627514 21.87412677 -35.875 28.6875 Z " fill="#FFFFFF" transform="translate(341,241)"/>
<path d="M0 0 C6.031274 5.63360758 10.80422927 11.76702672 11.12025452 20.2144165 C11.11803391 21.48460632 11.11581329 22.75479614 11.11352539 24.06347656 C11.11367142 24.76631775 11.11381744 25.46915894 11.1139679 26.19329834 C11.11327299 28.50910563 11.10550038 30.82483181 11.09765625 33.140625 C11.09579057 34.74916541 11.09436737 36.35770638 11.09336853 37.96624756 C11.08955516 42.19455542 11.07973495 46.42282879 11.06866455 50.65112305 C11.05842506 54.96793145 11.05386547 59.28474544 11.04882812 63.6015625 C11.03811162 72.06772414 11.02104937 80.53385778 11 89 C6.31860746 89.02465288 1.63725241 89.04283739 -3.04418945 89.05493164 C-4.63794614 89.05997157 -6.23169819 89.0668035 -7.82543945 89.07543945 C-10.11150253 89.08751999 -12.39750467 89.09323155 -14.68359375 89.09765625 C-15.40026718 89.10281754 -16.11694061 89.10797882 -16.85533142 89.11329651 C-18.57063672 89.11349263 -20.28581266 89.06192007 -22 89 C-23.70213793 87.29786207 -23.13363314 85.10884621 -23.1418457 82.78100586 C-23.15239738 81.10807716 -23.15239738 81.10807716 -23.16316223 79.40135193 C-23.16732651 78.18480423 -23.17149078 76.96825653 -23.17578125 75.71484375 C-23.19899048 73.15689291 -23.22310825 70.59895019 -23.24804688 68.04101562 C-23.28436155 63.99454836 -23.31414576 59.94822968 -23.32592773 55.90161133 C-23.34143997 52.00565311 -23.38168851 48.11056985 -23.42578125 44.21484375 C-23.42387283 43.01246567 -23.42196442 41.81008759 -23.41999817 40.5712738 C-23.5211868 33.59247165 -24.22276993 28.92638934 -28 23 C-31.31114576 20.20167031 -35.03780446 18.97095434 -39.375 19.03515625 C-44.82271312 19.98298471 -48.20787479 22.0272974 -52 26 C-56.05581072 31.85468564 -55.4757289 38.20674666 -55.51171875 45.0546875 C-55.52966995 46.31137238 -55.54762115 47.56805725 -55.56611633 48.86282349 C-55.61100911 52.18695624 -55.6433604 55.51072339 -55.66955566 58.83502197 C-55.69945333 62.2338983 -55.74579263 65.63254872 -55.79101562 69.03125 C-55.87838421 75.6875169 -55.93848122 82.3432433 -56 89 C-67.22 89 -78.44 89 -90 89 C-90 57.65 -90 26.3 -90 -6 C-78.78 -6 -67.56 -6 -56 -6 C-55.505 -2.535 -55.505 -2.535 -55 1 C-54.319375 0.4225 -53.63875 -0.155 -52.9375 -0.75 C-37.15041898 -12.84223227 -16.04666224 -11.432606 0 0 Z " fill="#FFFFFF" transform="translate(486,241)"/>
<path d="M0 0 C0.23697288 3.85377144 -0.26737428 6.08956281 -2.1875 9.42578125 C-2.63867188 10.22177734 -3.08984375 11.01777344 -3.5546875 11.83789062 C-4.03164062 12.65451172 -4.50859375 13.47113281 -5 14.3125 C-5.47695312 15.14845703 -5.95390625 15.98441406 -6.4453125 16.84570312 C-7.62079407 18.90279588 -8.80583209 20.95371706 -10 23 C-13.53480683 22.48864452 -16.20824795 21.90703217 -19.5 20.4375 C-25.25500165 18.19137314 -31.96830036 17.83504658 -38 19 C-39.97680337 21.40453035 -39.97680337 21.40453035 -41 24 C-36.17773503 26.61206019 -30.97083621 28.37862926 -25.75390625 30.0234375 C-16.123978 33.16661233 -8.03059496 37.18294749 -1.4375 45.0625 C2.81485373 53.7520924 3.64116193 63.60046883 0.75 72.9375 C-2.64813657 81.47960478 -7.84022702 86.23143777 -16.1640625 89.97265625 C-34.00069037 96.42627252 -52.76708084 95.20987848 -70.125 88.0625 C-73.93696637 86.22602484 -76.89831577 83.86309313 -80 81 C-78.51030851 75.64721024 -76.00966365 71.39401545 -73.0625 66.75 C-72.39831055 65.67105469 -72.39831055 65.67105469 -71.72070312 64.5703125 C-71.28822266 63.88195312 -70.85574219 63.19359375 -70.41015625 62.484375 C-70.01965088 61.86272461 -69.62914551 61.24107422 -69.22680664 60.60058594 C-68 59 -68 59 -65 57 C-64.43152344 57.39832031 -63.86304688 57.79664063 -63.27734375 58.20703125 C-55.89205178 63.27440187 -49.1333318 66.93247074 -40 67 C-37.80682361 66.56325862 -37.80682361 66.56325862 -36 66 C-35.67 64.02 -35.34 62.04 -35 60 C-38.41039156 57.80996132 -41.87676282 56.14728857 -45.62158203 54.60375977 C-55.95717901 50.33247843 -66.66947693 45.43970955 -72 35 C-75.10307686 26.60970633 -74.07731664 18.27456251 -71 10 C-65.46195586 0.81398406 -56.90249621 -3.12280077 -46.875 -5.8125 C-31.08964786 -9.05479651 -14.41260015 -7.33272639 0 0 Z " fill="#FFFFFF" transform="translate(256,239)"/>
<path d="M0 0 C10.89 0 21.78 0 33 0 C33 52.14 33 104.28 33 158 C22.11 158 11.22 158 0 158 C0 105.86 0 53.72 0 0 Z " fill="#FFFFFF" transform="translate(81,172)"/>
<path d="M0 0 C11.22 0 22.44 0 34 0 C34 31.35 34 62.7 34 95 C22.78 95 11.56 95 0 95 C0 63.65 0 32.3 0 0 Z " fill="#FFFFFF" transform="translate(132,235)"/>
<path d="M0 0 C11.22 0 22.44 0 34 0 C34 31.35 34 62.7 34 95 C22.78 95 11.56 95 0 95 C0 63.65 0 32.3 0 0 Z " fill="#FFFFFF" transform="translate(29,235)"/>
</svg>
